<?xml version="1.0" encoding="UTF-8"?>
<svg id="Capa_1" xmlns="http://www.w3.org/2000/svg" version="1.1" viewBox="0 0 793 200">
  <!-- Generator: Adobe Illustrator 29.8.1, SVG Export Plug-In . SVG Version: 2.1.1 Build 2)  -->
  <defs>
    <style>
      .st0 {
        fill: #fff;
      }
    </style>
  </defs>
  <g>
    <path class="st0" d="M207.32,133.04h-15.45V49.26h15.45v83.78Z"/>
    <path class="st0" d="M268.75,133.04h-15.07v-33.24c0-4.63-.68-8.11-2.03-10.43-1.36-2.32-3.39-3.48-6.1-3.48s-4.77,1.23-6.46,3.68c-1.69,2.45-2.54,5.57-2.54,9.35v34.12h-15.12v-59.83h15.12v9.46h.19c1.82-3.66,4.03-6.4,6.65-8.21,2.61-1.81,5.65-2.72,9.09-2.72,5.42,0,9.49,2.05,12.2,6.16,2.71,4.11,4.07,10.27,4.07,18.49v36.63Z"/>
    <path class="st0" d="M311,58.67c-.93-.51-1.75-.88-2.49-1.11-.73-.23-1.56-.35-2.49-.35-2.01,0-3.55.77-4.62,2.31-1.07,1.54-1.6,3.73-1.6,6.57v7.13h11.19v13.61h-11.19v46.21h-15.07v-46.21h-8.23v-13.61h8.23v-8.18c0-6.58,1.82-11.89,5.45-15.92,3.64-4.03,8.34-6.05,14.11-6.05,2.2,0,4.03.17,5.5.5,1.47.33,3.03.79,4.69,1.37l-3.49,13.73Z"/>
    <path class="st0" d="M341.62,134.5c-8.17,0-14.59-2.8-19.28-8.41-4.69-5.61-7.02-13.18-6.98-22.73.03-9.89,2.46-17.64,7.3-23.23,4.83-5.59,11.38-8.38,19.64-8.38s14.51,2.79,19.14,8.35c4.62,5.57,6.94,12.97,6.94,22.2,0,9.89-2.38,17.73-7.15,23.52-4.77,5.78-11.3,8.68-19.59,8.68ZM342.1,120.36c3.64,0,6.35-1.48,8.16-4.44,1.8-2.96,2.7-7.38,2.7-13.26,0-5.57-.91-9.76-2.73-12.56-1.82-2.8-4.56-4.21-8.23-4.21s-6.35,1.51-8.32,4.53c-1.98,3.02-2.97,7.25-2.97,12.71,0,5.77.95,10.08,2.85,12.94,1.9,2.86,4.74,4.29,8.54,4.29Z"/>
    <path class="st0" d="M426.2,126.21c0,9.85-2.54,18.14-7.63,24.86-5.09,6.72-12.54,10.08-22.37,10.08-3.44,0-6.64-.37-9.59-1.11-2.95-.74-6-1.93-9.16-3.56l4.35-12.5c2.42,1.25,4.77,2.15,7.03,2.72,2.26.56,4.83.85,7.7.85,4.72,0,8.32-1.68,10.81-5.05,2.49-3.37,3.73-7.8,3.73-13.29v-4.73h-.19c-1.72,3.35-3.86,5.86-6.41,7.54-2.55,1.67-5.5,2.51-8.85,2.51-6.28,0-11.25-2.7-14.9-8.09-3.65-5.39-5.48-12.57-5.48-21.53,0-10.17,2.04-18.23,6.12-24.19,4.08-5.96,9.46-8.94,16.12-8.94,2.97,0,5.57.7,7.82,2.1,2.25,1.4,4.11,3.51,5.57,6.31h.19v-6.95h15.12v52.99ZM411.28,104.3v-4.73c0-3.78-.92-7-2.75-9.67-1.83-2.67-4.22-4-7.15-4-3.35,0-5.98,1.6-7.89,4.79-1.91,3.19-2.87,7.69-2.87,13.5,0,4.99.91,8.93,2.73,11.83,1.82,2.9,4.31,4.35,7.46,4.35s5.69-1.47,7.61-4.41c1.91-2.94,2.87-6.83,2.87-11.66Z"/>
    <path class="st0" d="M462.18,134.5c-8.17,0-14.59-2.8-19.28-8.41-4.69-5.61-7.02-13.18-6.99-22.73.03-9.89,2.46-17.64,7.3-23.23,4.83-5.59,11.38-8.38,19.64-8.38s14.51,2.79,19.14,8.35c4.62,5.57,6.94,12.97,6.94,22.2,0,9.89-2.38,17.73-7.15,23.52-4.77,5.78-11.3,8.68-19.59,8.68ZM462.66,120.36c3.64,0,6.35-1.48,8.16-4.44,1.8-2.96,2.7-7.38,2.7-13.26,0-5.57-.91-9.76-2.73-12.56-1.82-2.8-4.56-4.21-8.23-4.21s-6.35,1.51-8.32,4.53c-1.98,3.02-2.97,7.25-2.97,12.71,0,5.77.95,10.08,2.85,12.94,1.9,2.86,4.74,4.29,8.54,4.29Z"/>
    <path class="st0" d="M522.08,134.5c-8.17,0-14.59-2.8-19.28-8.41-4.69-5.61-7.02-13.18-6.99-22.73.03-9.89,2.46-17.64,7.3-23.23,4.83-5.59,11.38-8.38,19.64-8.38s14.51,2.79,19.14,8.35c4.62,5.57,6.94,12.97,6.94,22.2,0,9.89-2.38,17.73-7.15,23.52-4.77,5.78-11.3,8.68-19.59,8.68ZM522.56,120.36c3.64,0,6.35-1.48,8.16-4.44,1.8-2.96,2.7-7.38,2.7-13.26,0-5.57-.91-9.76-2.73-12.56-1.82-2.8-4.56-4.21-8.23-4.21s-6.35,1.51-8.32,4.53c-1.98,3.02-2.97,7.25-2.97,12.71,0,5.77.95,10.08,2.85,12.94,1.9,2.86,4.74,4.29,8.54,4.29Z"/>
    <path class="st0" d="M591.26,124.8c-1.72,3.23-3.84,5.66-6.36,7.27-2.52,1.62-5.45,2.42-8.8,2.42-6.09,0-11.01-2.64-14.76-7.92-3.75-5.28-5.62-12.65-5.62-22.11s2.07-17.82,6.2-23.78c4.13-5.96,9.51-8.94,16.15-8.94,3.16,0,5.84.69,8.04,2.07,2.2,1.38,3.92,3.46,5.17,6.22h.19v-35.58h15.12v88.57h-15.12v-8.24h-.19ZM571.07,103.95c0,5.26.91,9.31,2.73,12.15,1.82,2.84,4.34,4.26,7.56,4.26s5.56-1.5,7.49-4.5,2.89-6.97,2.89-11.92v-4.5c0-3.89-.93-7.13-2.77-9.7-1.85-2.57-4.26-3.86-7.22-3.86-3.35,0-5.96,1.61-7.85,4.82-1.88,3.21-2.82,7.62-2.82,13.23Z"/>
    <path class="st0" d="M668.91,64.63h-19.57v68.42h-15.5v-68.42h-19.47v-15.37h54.54v15.37Z"/>
    <path class="st0" d="M699.81,88.52c-.61-.16-1.23-.27-1.87-.35-.64-.08-1.34-.12-2.11-.12-3.99,0-6.95,1.43-8.9,4.29s-2.92,6.9-2.92,12.12v28.57h-15.12v-59.83h15.12v11.1h.19c1.18-4.05,2.85-7.09,5-9.11,2.15-2.02,4.79-3.04,7.92-3.04.7,0,1.39.06,2.08.17.69.12,1.39.27,2.13.47l-1.53,15.72Z"/>
    <path class="st0" d="M716.03,64.98c-2.62,0-4.75-.97-6.41-2.92-1.66-1.95-2.49-4.36-2.49-7.24s.83-5.44,2.49-7.33c1.66-1.89,3.8-2.83,6.41-2.83s4.79.94,6.43,2.83c1.64,1.89,2.46,4.33,2.46,7.33s-.82,5.44-2.46,7.33c-1.64,1.89-3.79,2.83-6.43,2.83ZM723.49,133.04h-15.12v-59.83h15.12v59.83Z"/>
    <path class="st0" d="M751.53,126.09h-.19v34.47h-15.12v-87.35h15.12v9h.19c1.85-3.51,4.09-6.12,6.72-7.86,2.63-1.73,5.64-2.6,9.02-2.6,6.32,0,11.21,2.66,14.69,7.98,3.48,5.32,5.21,12.55,5.21,21.71,0,9.97-2.03,17.98-6.08,24.01-4.05,6.04-9.41,9.06-16.08,9.06-2.97,0-5.57-.7-7.8-2.1s-4.13-3.51-5.69-6.31ZM751.1,101.55v4.79c0,4.13.89,7.5,2.68,10.11,1.79,2.61,4.13,3.91,7.03,3.91,3.44,0,6.12-1.62,8.01-4.88,1.9-3.25,2.85-7.86,2.85-13.82,0-5.26-.84-9.2-2.51-11.83-1.67-2.63-4.19-3.94-7.54-3.94-3.09,0-5.62,1.43-7.58,4.29-1.96,2.86-2.94,6.65-2.94,11.36Z"/>
  </g>
  <g>
    <path class="st0" d="M88.92,5.68c36.68-3.15,68.38,23.49,70.46,60.42,1.27,22.52-.94,46.19,0,68.83-3.33,48.09-58.21,76.15-98.97,49.09-41.83-27.78-25.35-77.47-28.67-119.87,2.21-29.79,27.24-55.89,57.17-58.46ZM93.95,10.32c-29.64.89-55.27,24.81-57.15,54.61-1.43,22.68,1.08,46.79-.02,69.63,3.17,40.75,45.08,66.46,82.92,49.63,19.52-8.69,32.91-27.93,34.66-49.26-1.03-22.85,1.38-46.92.02-69.63-1.86-31.08-29.39-55.91-60.43-54.98Z"/>
    <path class="st0" d="M94.34,42.42c16.7-1.24,26.33,17.9,26.78,32.16.56,17.48-12.96,40.72-33.15,32.77-26.4-10.4-22.61-62.77,6.37-64.93ZM100.22,103.02c19.9-7.24,20.8-41.8,4.22-52.75-1.52-1.01-6.35-3.56-7.9-2.17-.36.33-1.62,3.27-1.84,3.96-4.22,12.91,5.56,23.84,7.4,36.13.77,5.11.14,10.07-1.88,14.83ZM90.94,48.5c-9.79,2.58-15.25,14.74-15.87,24.15-.84,12.77,4.8,29.05,19.1,31.18,10.18-15.69-6.47-30.49-5.55-46.63.16-2.86,1.06-6.13,2.31-8.7Z"/>
    <path class="st0" d="M149.33,115.4c-2.57-.52-5.06-1.38-7.65-1.82-24.59-4.21-48.83,7.23-61.25,28.63-6.48,11.16-8.92,24.19-7.28,37l-5.22-2.71c-2.59-26.93,13.51-53.03,38.1-63.6,11.2-4.82,23.59-6.27,35.65-4.35,1.41.23,6,.99,7,1.51,1.3.67.4,3.98.65,5.34Z"/>
    <path class="st0" d="M149.33,131.64c-4.98-1.56-9.99-3.19-15.26-3.5-29.98-1.73-53.09,26.85-44.3,55.7l-5.61-1.15c-8.22-35.14,23.42-66.68,58.68-58.29,1.38.33,6.25,1.42,6.5,2.79s-.17,3.07,0,4.45Z"/>
    <path class="st0" d="M147.76,142.51l-1.14,4.99c-2.41-.74-4.49-2.18-6.95-2.9-20.61-6.03-39.93,11.71-35.87,32.78.18.94,2.07,5.87,1.84,6.09-1.3-.18-4.32,1.1-5.23,0-6.18-16.28,1.33-34.79,17.07-42.11,9.71-4.51,20.87-3.67,30.28,1.15Z"/>
    <path class="st0" d="M90.55,115.41c.52.71-3.6,2.87-4.05,3.75-13.91-7.07-29.73-8.16-44.67-3.76l-.02-4.77c.2-.86,10.68-2.43,12.2-2.57,12.91-1.19,24.99,1.81,36.54,7.35Z"/>
    <path class="st0" d="M120.33,178.43l-4.63,1.94c-7.24-14.28,5.38-30.58,21.05-25.89.98.29,5.36,2.17,5.19,3.19l-2.49,3.74c-12.05-8.24-25.54,4.19-19.12,17.02Z"/>
    <path class="st0" d="M78.56,126.62l-3.29,4.27c-11.04-4.08-22.56-3.34-33.45.75.21-1.27-.46-4.41.37-5.23,1.15-1.13,10.99-3.06,13.02-3.23,8.13-.66,15.71.91,23.35,3.43Z"/>
    <path class="st0" d="M69.67,139.77l-1.81,4.66c-5.72-1.27-11.33-1.44-16.96.35-1.58.5-4.9,2.58-5.79,2.73-.83.14-.47-.19-.62-.55-.55-1.32-.78-2.86-1.16-4.24,8.03-4.58,17.46-5.41,26.33-2.94Z"/>
    <path class="st0" d="M135.4,33.03c-.08,1.17,3,2.85,2.54,3.87l-15.49,15.46c-.51-1.01-3.2-3.67-2.73-4.62l15.68-14.7Z"/>
    <path class="st0" d="M55.75,33.03l15.68,14.7c.48.96-2.22,3.61-2.73,4.62l-15.49-15.46c-.46-1.02,2.62-2.7,2.54-3.87Z"/>
    <path class="st0" d="M65.02,60.1c.15.17-.97,3.85-1.15,4.46-.13.42.26.7-.56.54l-19.85-8.67,1.65-4.45,19.92,8.11Z"/>
    <polygon class="st0" points="127.29 65.12 126.13 60.1 146.43 52.36 147.7 56.44 147.42 56.8 127.29 65.12"/>
    <path class="st0" d="M82.77,39.17l-4.2,2.37-7.71-19.47c.08-.32.4-.41.59-.6.54-.51,3.24-1.92,3.82-1.21l7.5,18.91Z"/>
    <path class="st0" d="M112.59,41.53l-4.2-2.37-.04-.88c2.65-5.33,4.33-11.79,7-17.01.25-.5.49-1.42,1.23-1.36.87.65,3.73,1.35,3.75,2.45l-7.74,19.16Z"/>
    <path class="st0" d="M62.32,73.25v5.03h-19.92c-1.16-1.23-.36-3.42-.58-5.03h20.5Z"/>
    <path class="st0" d="M149.33,73.25c-.22,1.6.58,3.8-.58,5.03h-19.92v-5.03h20.5Z"/>
    <rect class="st0" x="93.26" y="15.62" width="4.64" height="20.5"/>
    <path class="st0" d="M64.64,154.47l-1.41,4.67c-4.09-1.1-8.06.06-11.52,2.28l-2.49-3.74c-.2-1.23,5-3.15,6.12-3.42,3.18-.76,6.17-.77,9.3.21Z"/>
  </g>
</svg>